<?xml version="1.0" encoding="iso-8859-1"?>
<!-- Generator: Adobe Illustrator 16.0.0, SVG Export Plug-In . SVG Version: 6.00 Build 0)  -->
<!DOCTYPE svg PUBLIC "-//W3C//DTD SVG 1.1//EN" "http://www.w3.org/Graphics/SVG/1.1/DTD/svg11.dtd">
<svg version="1.1" id="Capa_1" xmlns="http://www.w3.org/2000/svg" xmlns:xlink="http://www.w3.org/1999/xlink" x="0px" y="0px"
	 width="349.34px" height="349.341px" viewBox="0 0 349.34 349.341" style="enable-background:new 0 0 349.34 349.341;"
	 xml:space="preserve">
<g>
	<g>
		<path d="M295.002,28.163l1.136-0.201l-1.321-7.227l-1.123,0.204C290.601,21.497,176.7,0,176.7,0l-0.832,0.784
			c-40.814,38.256-73.054,68.473-59.078,129.88c3.068,16.402,7.004,33.5,10.812,50.032l0.072,0.324
			c6.02,26.001,12.22,52.902,15.435,78.675c4.807,31.165-9.169,50.068-42.718,57.814c-1.895,0.48-3.393,0.823-4.807,1.147
			c-6.671,1.494-11.082,2.498-39.728,13.156l-1.735,0.63l-0.511,1.766c-0.945,3.165-0.234,6.222,2.012,8.604
			c4.083,4.324,13.571,6.527,28.199,6.527c18.267,0,44.622-3.621,70.589-9.709l0.651-0.253c3.909-1.921,6.488-0.841,10.052,1.105
			c2.54,1.393,5.438,2.954,9.146,2.954c3.744,0,7.575-1.646,11.703-5.014c3.003-2.444,2.805-8.221,1.724-26.26
			c-1.087-18.35-2.57-43.504,2.12-59.922c1.362-4.737,2.63-9.024,3.807-12.97c7.938-26.716,11.223-37.788,4.113-73.367
			c-0.895-3.198-1.735-6.149-2.528-8.905l-0.336-1.231c-9.289-32.552-9.289-32.552,19.984-57.817l5.313-4.6
			c8.737-6.8,17.162-16.348,26.115-26.514c9.067-10.274,18.314-20.672,27.946-28.205c4.413-2.398,8.437-4.894,12.052-7.5
			C289.148,29.793,292.048,28.7,295.002,28.163z"/>
	</g>
</g>
<g>
</g>
<g>
</g>
<g>
</g>
<g>
</g>
<g>
</g>
<g>
</g>
<g>
</g>
<g>
</g>
<g>
</g>
<g>
</g>
<g>
</g>
<g>
</g>
<g>
</g>
<g>
</g>
<g>
</g>
</svg>
